<?xml version="1.0" encoding="UTF-8" standalone="no"?>
<!-- Created with Inkscape (http://www.inkscape.org/) -->

<svg
   xmlns:dc="http://purl.org/dc/elements/1.1/"
   xmlns:cc="http://creativecommons.org/ns#"
   xmlns:rdf="http://www.w3.org/1999/02/22-rdf-syntax-ns#"
   xmlns:svg="http://www.w3.org/2000/svg"
   xmlns="http://www.w3.org/2000/svg"
   xmlns:sodipodi="http://sodipodi.sourceforge.net/DTD/sodipodi-0.dtd"
   xmlns:inkscape="http://www.inkscape.org/namespaces/inkscape"
   width="40"
   height="60"
   id="svg2"
   version="1.1"
   inkscape:version="0.48.4 r9939"
   sodipodi:docname="Nu.svg">
  <defs
     id="defs4" />
  <sodipodi:namedview
     id="base"
     pagecolor="#ffffff"
     bordercolor="#666666"
     borderopacity="1.0"
     inkscape:pageopacity="0.0"
     inkscape:pageshadow="2"
     inkscape:zoom="11.2"
     inkscape:cx="14.699885"
     inkscape:cy="30.14439"
     inkscape:document-units="px"
     inkscape:current-layer="layer1"
     showgrid="false"
     inkscape:window-width="956"
     inkscape:window-height="1018"
     inkscape:window-x="2880"
     inkscape:window-y="0"
     inkscape:window-maximized="0" />
  <metadata
     id="metadata7">
    <rdf:RDF>
      <cc:Work
         rdf:about="">
        <dc:format>image/svg+xml</dc:format>
        <dc:type
           rdf:resource="http://purl.org/dc/dcmitype/StillImage" />
        <dc:title></dc:title>
      </cc:Work>
    </rdf:RDF>
  </metadata>
  <g
     inkscape:label="Layer 1"
     inkscape:groupmode="layer"
     id="layer1"
     transform="translate(0,-992.36218)">
    <g
       transform="scale(0.95065557,1.0519057)"
       style="font-size:68.38985443px;font-style:normal;font-weight:normal;line-height:125%;letter-spacing:0px;word-spacing:0px;fill:#000000;fill-opacity:1;stroke:none;font-family:Sans"
       id="text2985" />
    <path
       inkscape:connector-curvature="0"
       id="path3380"
       d="m 11.672473,992.33119 0,1.64107 -0.136756,23.59054 -8.1028006,-7.1456 -1.2308052,-1.0941 -2.153909,2.4617 1.2308051,1.094 8.9575257,7.8977 -9.1284708,8.0344 -1.23080516,1.094 2.18809806,2.4617 1.2308051,-1.0941 8.2053678,-7.2481 -0.136756,26.8726 0,1.6411 3.247958,0.034 0.03413,-1.6411 0.136756,-26.1204 7.179697,6.325 1.230805,1.0941 2.153909,-2.4616 -1.230805,-1.0941 -8.923337,-7.8977 8.786581,-7.7609 1.230805,-1.094 -2.188098,-2.4616 -1.196616,1.094 -7.008752,6.1541 0.136757,-22.70162 0,-1.64108 -3.282148,-0.0341 z"
       style="fill:#000000;fill-opacity:1;fill-rule:evenodd;stroke:none;stroke-width:3;marker:none;visibility:visible" />
  </g>
</svg>
